<?xml version="1.0" encoding="utf-8"?>
<svg version="1.2" baseProfile="tiny" id="Layer_1" xmlns="http://www.w3.org/2000/svg" xmlns:xlink="http://www.w3.org/1999/xlink" x="0px" y="0px" width="256px" height="256px" viewBox="0 0 256 256" xml:space="preserve">
<path fill="#010101" d="M-82.434-38.079c-3.625,3.622-8.375,5.437-13.122,5.437c-4.75,0-9.5-1.814-13.122-5.437c-7.248-7.246-7.248-18.997,0-26.241c36.272-36.276,86.312-50.551,133.456-42.91c-1.937,7.422-4.01,17.76-6.768,32.099 c-0.258,1.326-0.527,2.743-0.816,4.235C-18.093-76.115-55.331-65.183-82.434-38.079z M108.675-64.322 C97.463-75.533,84.938-84.644,71.588-91.66c-2.424,1.275-4.745,2.869-6.827,4.97c-6.454,6.515-11.871,15.913-16.123,25.102 C60.89-55.98,72.364-48.151,82.435-38.079c7.246,7.246,18.995,7.244,26.244,0C115.925-45.327,115.925-57.076,108.675-64.322zM2.758-13.894c3.642-8.09,7.253-22.523,10.253-36.4c-33.821-3.794-69.002,7.217-94.881,33.095c-7.249,7.247-7.249,18.994,0,26.242 c7.244,7.245,18.993,7.245,26.241,0C-39.591-6.991-18.297-14.625,2.758-13.894z M41.387-43.417 c-1.709,4.971-2.837,8.832-3.335,10.612c-3.125,11.161-3.209,19.587-2.12,27.503C43.03-1.663,49.693,3.109,55.629,9.044 c3.622,3.623,8.371,5.433,13.123,5.433c4.745,0,9.497-1.81,13.12-5.433c7.248-7.248,7.248-18.996,0-26.242 C69.996-29.071,56.151-37.791,41.387-43.417z M36.291-118.838C27.794-109.228,18.444-8.23,0-1.883 c-18.924,6.512-36.238,16.225-36.238,36.239S-20.014,70.594,0,70.594c20.015,0,36.241-16.223,36.241-36.237 c0-25.582-12.397-38.479-3.918-68.764c3.801-13.574,13.63-41.747,28.212-56.469c11.255-11.361,27.852-10.334,31.085-15.617 C95.6-113.001,39.816-122.825,36.291-118.838z M-81.867,85.908c-7.25-7.245-7.25-18.994,0-26.242c7.243-7.245,18.992-7.245,26.241,0 c30.672,30.671,80.579,30.67,111.255,0c3.624-3.623,8.375-5.434,13.124-5.434c4.745,0,9.496,1.811,13.121,5.434c7.246,7.248,7.246,18.997,0,26.242C36.725,131.044-36.726,131.05-81.867,85.908z"/>
</svg>
