<?xml version="1.0" encoding="utf-8"?>
<!-- Generator: Adobe Illustrator 16.0.0, SVG Export Plug-In . SVG Version: 6.00 Build 0)  -->
<svg version="1.2" baseProfile="tiny" id="Layer_1" xmlns="http://www.w3.org/2000/svg" xmlns:xlink="http://www.w3.org/1999/xlink"
	 x="0px" y="0px" width="30px" height="30px" viewBox="0 0 30 30" xml:space="preserve">
<path fill="#010101" d="M-10.262-4.74c-0.451,0.451-1.042,0.677-1.634,0.677c-0.591,0-1.183-0.226-1.633-0.677c-0.902-0.902-0.902-2.365,0-3.267c4.516-4.516,10.745-6.293,16.613-5.342c-0.241,0.924-0.499,2.211-0.842,3.996C2.21-9.188,2.176-9.011,2.141-8.826C-2.252-9.475-6.888-8.114-10.262-4.74z M13.528-8.007c-1.396-1.396-2.955-2.53-4.617-3.403c-0.302,0.159-0.591,0.357-0.85,0.619C7.258-9.98,6.584-8.811,6.055-7.667C7.58-6.969,9.008-5.994,10.262-4.74c0.902,0.902,2.364,0.902,3.267,0C14.431-5.643,14.431-7.105,13.528-8.007z M0.343-1.729C0.797-2.737,1.246-4.533,1.62-6.261c-4.21-0.472-8.59,0.898-11.811,4.12c-0.903,0.902-0.903,2.365,0,3.267c0.901,0.902,2.364,0.902,3.267,0C-4.929-0.87-2.278-1.821,0.343-1.729z M5.152-5.405c-0.212,0.619-0.353,1.1-0.415,1.321C4.348-2.694,4.337-1.646,4.473-0.66c0.883,0.453,1.713,1.047,2.452,1.786c0.451,0.451,1.042,0.676,1.634,0.676c0.591,0,1.182-0.226,1.633-0.676c0.902-0.902,0.902-2.365,0-3.267C8.713-3.619,6.99-4.705,5.152-5.405z M4.518-14.794C3.46-13.597,2.296-1.024,0-0.234c-2.356,0.811-4.511,2.02-4.511,4.511S-2.491,8.788,0,8.788s4.511-2.02,4.511-4.511c0-3.185-1.543-4.79-0.487-8.56c0.473-1.69,1.696-5.197,3.512-7.03c1.401-1.414,3.467-1.287,3.87-1.944C11.901-14.067,4.957-15.29,4.518-14.794z M-10.191,10.694c-0.902-0.902-0.902-2.364,0-3.267c0.902-0.902,2.364-0.902,3.267,0c3.818,3.818,10.031,3.818,13.85,0c0.451-0.451,1.043-0.677,1.634-0.677s1.182,0.226,1.634,0.677c0.902,0.902,0.902,2.365,0,3.267C4.572,16.312-4.572,16.314-10.191,10.694z"/>
</svg>
